<?xml version="1.0" standalone="no"?>
<!DOCTYPE svg PUBLIC "-//W3C//DTD SVG 20010904//EN"
 "http://www.w3.org/TR/2001/REC-SVG-20010904/DTD/svg10.dtd">
<svg version="1.0" xmlns="http://www.w3.org/2000/svg"
 width="550.000000pt" height="550.000000pt" viewBox="0 0 550.000000 550.000000"
 preserveAspectRatio="xMidYMid meet">
<metadata>
Created by potrace 1.11, written by Peter Selinger 2001-2013
</metadata>
<g transform="translate(0.000000,550.000000) scale(0.100000,-0.100000)"
fill="#000000" stroke="none">
<path d="M1298 4675 l5 -205 -213 0 -213 0 7 -92 c3 -50 6 -698 6 -1440 l0
-1348 204 0 203 0 6 -67 c4 -38 7 -132 7 -210 l0 -143 210 0 210 0 0 -215 0
-215 1023 2 1022 3 5 210 5 210 208 3 207 2 0 348 c0 191 3 377 7 415 l6 67
-216 0 -217 0 -2 203 -3 202 -817 3 -818 2 0 -205 0 -205 -425 0 -425 0 0 820
0 820 423 2 422 3 3 213 2 212 820 0 820 0 0 -215 0 -215 -205 0 -205 0 2
-201 3 -202 200 -1 200 -1 3 -208 2 -207 216 2 216 3 0 202 1 203 -139 4 c-76
2 -174 5 -216 5 l-78 1 0 200 0 200 212 2 213 3 -4 218 -3 217 211 0 211 0 0
195 0 195 -205 0 -205 0 0 205 0 205 -1459 0 -1458 0 5 -205z m2080 -2882 l2
-203 -420 0 -420 0 0 198 c0 109 3 202 7 205 4 4 191 6 417 5 l411 -3 3 -202z"/>
<path d="M2140 3225 l0 -405 205 0 205 0 0 118 c0 65 -3 248 -7 405 l-6 287
-199 0 -198 0 0 -405z"/>
</g>
</svg>
